<svg xmlns="http://www.w3.org/2000/svg" xmlns:xlink="http://www.w3.org/1999/xlink" version="1.1" width="256" height="256" viewBox="0 0 256 256" xml:space="preserve">
<g style="stroke: none; stroke-width: 0; stroke-dasharray: none; stroke-linecap: butt; stroke-linejoin: miter; stroke-miterlimit: 10; fill: none; fill-rule: nonzero; opacity: 1;" transform="translate(1.4065934065934016 1.4065934065934016) scale(2.81 2.81)">
	<path d="M 88.967 90 h -44 c -0.552 0 -1 -0.447 -1 -1 V 76.467 h -3.401 c -5.22 0 -9.466 -4.247 -9.466 -9.467 s 4.247 -9.467 9.466 -9.467 h 3.401 V 45 c 0 -0.552 0.448 -1 1 -1 h 13.534 c 0.553 0 1 0.448 1 1 v 4.401 c 0 4.117 3.35 7.467 7.466 7.467 c 4.117 0 7.467 -3.35 7.467 -7.467 V 45 c 0 -0.552 0.447 -1 1 -1 h 13.533 c 0.553 0 1 0.448 1 1 v 44 C 89.967 89.553 89.52 90 88.967 90 z M 45.967 88 h 42 V 46 H 76.434 v 3.401 c 0 5.22 -4.247 9.467 -9.467 9.467 s -9.466 -4.247 -9.466 -9.467 V 46 H 45.967 v 12.533 c 0 0.553 -0.448 1 -1 1 h -4.401 c -4.117 0 -7.466 3.35 -7.466 7.467 s 3.35 7.467 7.466 7.467 h 4.401 c 0.552 0 1 0.447 1 1 V 88 z" style="stroke: none; stroke-width: 1; stroke-dasharray: none; stroke-linecap: butt; stroke-linejoin: miter; stroke-miterlimit: 10; fill: rgb(0,0,0); fill-rule: nonzero; opacity: 1;" transform=" matrix(1 0 0 1 0 0) " stroke-linecap="round"/>
	<path d="M 45.033 46 H 31.5 c -0.552 0 -1 -0.448 -1 -1 v -4.401 c 0 -4.117 -3.35 -7.467 -7.467 -7.467 s -7.467 3.35 -7.467 7.467 V 45 c 0 0.552 -0.448 1 -1 1 H 1.033 c -0.552 0 -1 -0.448 -1 -1 V 1 c 0 -0.552 0.448 -1 1 -1 h 44 c 0.552 0 1 0.448 1 1 v 12.533 h 3.4 c 5.22 0 9.467 4.247 9.467 9.467 s -4.247 9.467 -9.467 9.467 h -3.4 V 45 C 46.033 45.552 45.585 46 45.033 46 z M 32.5 44 h 11.533 V 31.467 c 0 -0.552 0.448 -1 1 -1 h 4.401 c 4.117 0 7.467 -3.35 7.467 -7.467 s -3.35 -7.467 -7.467 -7.467 h -4.401 c -0.552 0 -1 -0.448 -1 -1 V 2 h -42 v 42 h 11.533 v -3.401 c 0 -5.22 4.247 -9.467 9.467 -9.467 s 9.467 4.247 9.467 9.467 V 44 z" style="stroke: none; stroke-width: 1; stroke-dasharray: none; stroke-linecap: butt; stroke-linejoin: miter; stroke-miterlimit: 10; fill: rgb(0,0,0); fill-rule: nonzero; opacity: 1;" transform=" matrix(1 0 0 1 0 0) " stroke-linecap="round"/>
	<path d="M 88.967 46 c -0.553 0 -1 -0.448 -1 -1 V 2 H 45.033 c -0.552 0 -1 -0.448 -1 -1 s 0.448 -1 1 -1 h 43.934 c 0.553 0 1 0.448 1 1 v 44 C 89.967 45.552 89.52 46 88.967 46 z" style="stroke: none; stroke-width: 1; stroke-dasharray: none; stroke-linecap: butt; stroke-linejoin: miter; stroke-miterlimit: 10; fill: rgb(0,0,0); fill-rule: nonzero; opacity: 1;" transform=" matrix(1 0 0 1 0 0) " stroke-linecap="round"/>
	<path d="M 44.967 90 H 1.033 c -0.552 0 -1 -0.447 -1 -1 V 45 c 0 -0.552 0.448 -1 1 -1 s 1 0.448 1 1 v 43 h 42.935 c 0.552 0 1 0.447 1 1 S 45.52 90 44.967 90 z" style="stroke: none; stroke-width: 1; stroke-dasharray: none; stroke-linecap: butt; stroke-linejoin: miter; stroke-miterlimit: 10; fill: rgb(0,0,0); fill-rule: nonzero; opacity: 1;" transform=" matrix(1 0 0 1 0 0) " stroke-linecap="round"/>
</g>
</svg>